name C:\Users\antoi\Documents\MyRepositories\upper-imu-dc\Results\main_tracking\Case_69\FLX01_angularVelocities_groundFrame.mot
datacolumns 4
datarows 58
range 5.01000000 5.58000000
endheader 
time	radius_imu_x	radius_imu_y	radius_imu_z	
          5.01000000	          1.00620061	         -0.70928827	         -1.22130074	
          5.02000000	          1.03182771	         -0.69687820	         -1.20577100	
          5.03000000	          1.05264005	         -0.68237686	         -1.18760341	
          5.04000000	          1.06910607	         -0.66646573	         -1.16746136	
          5.05000000	          1.08149650	         -0.64967528	         -1.14604490	
          5.06000000	          1.08982572	         -0.63235961	         -1.12410599	
          5.07000000	          1.09384598	         -0.61468729	         -1.10244520	
          5.08000000	          1.09311509	         -0.59666243	         -1.08188236	
          5.09000000	          1.08712597	         -0.57817648	         -1.06320461	
          5.10000000	          1.07546310	         -0.55907890	         -1.04710415	
          5.11000000	          1.05793051	         -0.53924158	         -1.03412509	
          5.12000000	          1.03460978	         -0.51859536	         -1.02463553	
          5.13000000	          1.00584755	         -0.49713348	         -1.01882456	
          5.14000000	          0.97220126	         -0.47489883	         -1.01671785	
          5.15000000	          0.93439950	         -0.45197857	         -1.01817287	
          5.16000000	          0.89333005	         -0.42853654	         -1.02284162	
          5.17000000	          0.84993347	         -0.40479777	         -1.03025168	
          5.18000000	          0.80491572	         -0.38083594	         -1.04013562	
          5.19000000	          0.75903643	         -0.35673324	         -1.05219759	
          5.20000000	          0.71358048	         -0.33296130	         -1.06564178	
          5.21000000	          0.67015438	         -0.31031390	         -1.07937345	
          5.22000000	          0.63007622	         -0.28946682	         -1.09257595	
          5.23000000	          0.59427664	         -0.27091058	         -1.10468861	
          5.24000000	          0.56348573	         -0.25512722	         -1.11515081	
          5.25000000	          0.53818285	         -0.24255871	         -1.12347531	
          5.26000000	          0.51854085	         -0.23354498	         -1.12932406	
          5.27000000	          0.50444703	         -0.22831101	         -1.13252147	
          5.28000000	          0.49556672	         -0.22699251	         -1.13303695	
          5.29000000	          0.49143386	         -0.22967293	         -1.13095447	
          5.30000000	          0.49153241	         -0.23640997	         -1.12644067	
          5.31000000	          0.49535828	         -0.24725339	         -1.11971179	
          5.32000000	          0.50245723	         -0.26225515	         -1.11100816	
          5.33000000	          0.51243561	         -0.28146264	         -1.10057599	
          5.34000000	          0.52495249	         -0.30490021	         -1.08865084	
          5.35000000	          0.53969548	         -0.33256560	         -1.07545561	
          5.36000000	          0.55636395	         -0.36444934	         -1.06121380	
          5.37000000	          0.57464159	         -0.40047867	         -1.04613513	
          5.38000000	          0.59418423	         -0.44046387	         -1.03040304	
          5.39000000	          0.61461025	         -0.48421483	         -1.01421979	
          5.40000000	          0.63550038	         -0.53153161	         -0.99781218	
          5.41000000	          0.65639947	         -0.58203042	         -0.98139787	
          5.42000000	          0.67682120	         -0.63524102	         -0.96522569	
          5.43000000	          0.69624799	         -0.69060157	         -0.94958590	
          5.44000000	          0.71412859	         -0.74736370	         -0.93478509	
          5.45000000	          0.72988745	         -0.80462151	         -0.92115469	
          5.46000000	          0.74294158	         -0.86140836	         -0.90907315	
          5.47000000	          0.75271531	         -0.91665535	         -0.89893009	
          5.48000000	          0.75866383	         -0.96917944	         -0.89109893	
          5.49000000	          0.76030422	         -1.01779139	         -0.88595496	
          5.50000000	          0.75723275	         -1.06130373	         -0.88385240	
          5.51000000	          0.74913734	         -1.09854530	         -0.88510615	
          5.52000000	          0.73580649	         -1.12837619	         -0.88998221	
          5.53000000	          0.71713997	         -1.14970818	         -0.89868163	
          5.54000000	          0.69316094	         -1.16153167	         -0.91132859	
          5.55000000	          0.66403109	         -1.16295287	         -0.92795771	
          5.56000000	          0.63006970	         -1.15325188	         -0.94850037	
          5.57000000	          0.59177083	         -1.13195063	         -0.97277064	
          5.58000000	          0.54981508	         -1.09888589	         -1.00045073	
